<svg width="20" height="20" viewBox="0 0 20 20" fill="none" xmlns="http://www.w3.org/2000/svg">
<path fill-rule="evenodd" clip-rule="evenodd" d="M12.0763 2.07525C12.0763 3.22138 11.1472 4.1505 10.0011 4.1505C8.85493 4.1505 7.92581 3.22138 7.92581 2.07525C7.92581 0.92912 8.85493 0 10.0011 0C11.1472 0 12.0763 0.92912 12.0763 2.07525ZM12.0763 17.9247C12.0763 19.0708 11.1472 20 10.0011 20C8.85493 20 7.92581 19.0708 7.92581 17.9247C7.92581 16.7786 8.85493 15.8495 10.0011 15.8495C11.1472 15.8495 12.0763 16.7786 12.0763 17.9247ZM17.9249 7.92567C17.351 7.92567 16.8335 8.15888 16.4582 8.53421C14.9915 10.0009 12.9363 10.0009 11.4678 8.53421C11.0924 8.15888 10.5732 7.92567 10.0011 7.92567C8.85503 7.92567 7.92581 8.85488 7.92581 10.0009C7.92581 11.1469 8.85503 12.0762 10.0011 12.0762C10.575 12.0762 11.0924 11.8448 11.4678 11.4676C12.9345 10.0009 14.9897 10.0009 16.4582 11.4676C16.8335 11.8429 17.3528 12.0762 17.9249 12.0762C19.0709 12.0762 20.0001 11.1469 20.0001 10.0009C20.0001 8.85488 19.0709 7.92567 17.9249 7.92567ZM7.50292 7.50478C7.12759 7.88194 6.61014 8.11333 6.03621 8.11333C4.89018 8.11333 3.96097 7.18412 3.96097 6.03808C3.96097 4.89205 4.89018 3.96283 6.03621 3.96283C6.60832 3.96283 7.12759 4.19605 7.50292 4.57138C8.97144 6.03808 11.0266 6.03808 12.4933 4.57138C12.8687 4.19605 13.3861 3.96283 13.9601 3.96283C15.1061 3.96283 16.0353 4.89205 16.0353 6.03808C16.0353 7.18412 15.1061 8.11333 13.9601 8.11333C13.3879 8.11333 12.8687 7.88011 12.4933 7.50478C11.0248 6.03808 8.96962 6.03808 7.50292 7.50478ZM13.9601 11.8866C13.3861 11.8866 12.8687 12.118 12.4933 12.4952C11.0266 13.9619 8.97144 13.9619 7.50292 12.4952C7.12759 12.1198 6.60832 11.8866 6.03621 11.8866C4.89018 11.8866 3.96097 12.8159 3.96097 13.9619C3.96097 15.1079 4.89018 16.0371 6.03621 16.0371C6.61014 16.0371 7.12759 15.8057 7.50292 15.4286C8.96962 13.9619 11.0248 13.9619 12.4933 15.4286C12.8687 15.8039 13.3879 16.0371 13.9601 16.0371C15.1061 16.0371 16.0353 15.1079 16.0353 13.9619C16.0353 12.8159 15.1079 11.8866 13.9601 11.8866ZM4.15049 10.0009C4.15049 11.147 3.22137 12.0762 2.07525 12.0762C0.92912 12.0762 0 11.147 0 10.0009C0 8.85479 0.92912 7.92567 2.07525 7.92567C3.22137 7.92567 4.15049 8.85479 4.15049 10.0009Z" fill="#6466E8"/>
</svg>
